# xmcd CD database file
#
# Track frame offsets:
#	150
#	15822
#	33521
#	46772
#	61024
#	73299
#	85283
#	97298
#	112572
#	126962
#	137803
#	148008
#	158715
#
# Disc length: 2290 seconds
#
# Revision: 0
# Processed by: cddbd v1.5.1PL2 Copyright (c) Steve Scherf et al.
# Submitted via: CDex 1.51
#
DISCID=a908f00d
DTITLE=Scott Dann - It's Time
DYEAR=2006
DGENRE=Country
TTITLE0=It's Time
TTITLE1=Rock And Roll Lovesong
TTITLE2=I Am A Singer
TTITLE3=She's A Real Good Girl
TTITLE4=Beer Pressure
TTITLE5=Ten Guitars
TTITLE6=Please Help Me I'm Falling
TTITLE7=Chips and Salsa
TTITLE8=Spanish Harlem
TTITLE9=George Jones And Beer
TTITLE10=Una Paloma Blanca
TTITLE11=The Wayward Wind
TTITLE12=If I Didn't Have A Dime
EXTD=YEAR: 2006
EXTT0=
EXTT1=
EXTT2=
EXTT3=
EXTT4=
EXTT5=
EXTT6=
EXTT7=
EXTT8=
EXTT9=
EXTT10=
EXTT11=
EXTT12=
PLAYORDER=
